Coordinates
version=1
nRows=11
nColumns=36
inDegrees=yes

Units are S.I. units (second, meters, Newtons, ...)
If the header above contains a line with 'inDegrees', this indicates whether rotational values are in degrees (yes) or radians (no).

endheader
time	pelvis_tilt	pelvis_list	pelvis_rotation	pelvis_tx	pelvis_ty	pelvis_tz	hip_flexion_r	hip_adduction_r	hip_rotation_r	knee_angle_r	knee_angle_r_beta	ankle_angle_r	subtalar_angle_r	mtp_angle_r	hip_flexion_l	hip_adduction_l	hip_rotation_l	knee_angle_l	knee_angle_l_beta	ankle_angle_l	subtalar_angle_l	mtp_angle_l	lumbar_extension	lumbar_bending	lumbar_rotation	arm_flex_r	arm_add_r	arm_rot_r	elbow_flex_r	pro_sup_r	arm_flex_l	arm_add_l	arm_rot_l	elbow_flex_l	pro_sup_l
      1.73000000	    -17.14542635	      0.18050800	     -5.39761742	     -0.35126879	      0.63916412	     -0.56278461	     83.11862439	      1.44275503	      4.44483574	    101.88839052	      1.77828788	     32.72703757	    -11.06535080	     -7.50001483	     83.96844637	    -10.41169254	      2.41831759	    102.02887160	      1.78073974	     31.23098142	    -15.10140412	     -7.50001483	    -23.23178953	      2.33899871	      1.44799604	    -13.68662774	     -9.04808916	    -20.84617907	     91.52692484	    111.78611326	     -9.85490409	     -9.92160387	    -24.78311804	     83.75455396	    106.76417420
      1.74000000	    -17.61339889	      0.36607521	     -5.31837054	     -0.35068885	      0.63281290	     -0.56381183	     84.39083582	      1.00057451	      4.50010862	    102.99191620	      1.79754804	     32.84483958	    -10.86144458	     -7.50001471	     84.91305843	    -10.13107326	      2.43722592	    102.89469061	      1.79585113	     31.81891953	    -15.19418830	     -7.50001471	    -23.64593609	      2.13349416	      1.73139420	    -10.27885812	     -8.86105293	    -18.70708845	     92.54459590	    112.08799392	     -6.07023295	     -8.34397207	    -23.17427606	     84.70836592	    106.95495863
      1.75000000	    -17.92031739	      0.60675491	     -5.22297213	     -0.35014273	      0.62751939	     -0.56511834	     85.34536236	      0.43508996	      4.54966318	    103.88546214	      1.81314336	     33.16320514	    -10.60951985	     -7.50001459	     85.58329154	     -9.81974838	      2.38456409	    103.60301926	      1.80821380	     32.36507571	    -15.06467155	     -7.50001459	    -24.36721573	      1.83939486	      1.79555245	     -6.55583617	     -8.92715161	    -16.31884616	     93.68630548	    112.43592651	     -2.29286610	     -6.99636845	    -21.27722688	     85.64933314	    107.21688227
      1.76000000	    -18.10308068	      0.85843957	     -5.01535073	     -0.34953090	      0.62284412	     -0.56651054	     86.08136674	     -0.33599663	      4.49693866	    104.71154904	      1.82756130	     33.59582394	    -10.22591103	     -7.50001446	     86.11733017	     -9.40964369	      2.32123343	    104.26661027	      1.81979565	     32.84245572	    -14.86706190	     -7.50001446	    -25.18787506	      1.53126607	      1.64950132	     -2.54682451	     -9.07307767	    -13.80422142	     94.79485057	    112.78200375	      1.53074109	     -5.83300733	    -19.07035544	     86.60605334	    107.51910939
      1.77000000	    -18.16214781	      1.22125186	     -4.75619463	     -0.34904826	      0.61842940	     -0.56775420	     86.70007366	     -1.17693860	      4.58366566	    105.54623075	      1.84212924	     34.24230212	     -9.55811146	     -7.50001431	     86.53672538	     -8.96192839	      2.11533556	    104.92309010	      1.83125338	     33.28652847	    -14.64805157	     -7.50001431	    -25.88896569	      1.15526911	      1.32126837	      1.75600192	     -9.31052834	    -10.85970411	     95.78417702	    113.11612595	      5.49955909	     -5.00400447	    -16.33865272	     87.23592530	    107.79929263
      1.78000000	    -18.16672546	      1.61154831	     -4.42111075	     -0.34865895	      0.61434834	     -0.56871856	     87.20113286	     -1.95760260	      4.82772409	    106.35019203	      1.85616101	     35.00542880	     -8.94840116	     -7.50001417	     86.94164796	     -8.52603753	      1.79909114	    105.54417888	      1.84209343	     33.54797082	    -14.44333630	     -7.50001417	    -26.43185464	      0.79010391	      1.03691758	      6.21843643	     -9.59588685	     -7.79238186	     96.62063411	    113.36646820	      9.71586964	     -4.38332584	    -13.16970837	     87.59182352	    108.03109650
      1.79000000	    -18.21941827	      1.95501924	     -4.15652086	     -0.34825572	      0.61094322	     -0.56911950	     87.62958500	     -2.45955533	      5.12201467	    106.99080506	      1.86734182	     35.78458478	     -8.47891581	     -7.50001403	     87.33158990	     -8.22714739	      1.51664276	    106.05780402	      1.85105788	     33.69528278	    -14.27146133	     -7.50001403	    -26.90087739	      0.40488430	      0.82022321	     10.91979748	     -9.82882526	     -4.66215227	     97.42543654	    113.56785172	     14.09327247	     -4.04239148	     -9.54134062	     87.94640784	    108.26217250
      1.80000000	    -18.33254981	      2.26439190	     -3.98472208	     -0.34777523	      0.60819357	     -0.56891249	     88.04538607	     -2.71908448	      5.39406863	    107.51321501	      1.87645959	     36.40089704	     -8.11685147	     -7.50001389	     87.67639180	     -8.10200367	      1.25904307	    106.43980157	      1.85772499	     33.79780262	    -14.13361535	     -7.50001389	    -27.27834869	     -0.05657510	      0.65012820	     15.88047152	     -9.92729666	     -1.55193722	     98.13372513	    113.71957497	     18.63988070	     -3.86625250	     -5.66175312	     88.51279074	    108.49594164
      1.81000000	    -18.45327770	      2.55167824	     -3.88782991	     -0.34733159	      0.60594088	     -0.56835558	     88.43494051	     -2.77958206	      5.71645246	    107.95841333	      1.88422977	     36.81447510	     -7.87397554	     -7.50001377	     87.94181395	     -8.10783217	      1.03212190	    106.72993744	      1.86278882	     33.89578083	    -14.00291787	     -7.50001377	    -27.52037660	     -0.55724900	      0.48261914	     21.14168769	     -9.85734173	      1.47305646	     98.76697878	    113.81246048	     23.37508404	     -3.68738860	     -1.74313421	     89.30088087	    108.72000136
      1.82000000	    -18.56411308	      2.80651449	     -3.82612049	     -0.34687240	      0.60425943	     -0.56774061	     88.72640041	     -2.73945492	      5.99833807	    108.29601519	      1.89012203	     37.14667688	     -7.75845336	     -7.50001365	     88.11649429	     -8.12045733	      0.80863249	    106.91926851	      1.86609327	     34.02522782	    -13.86731857	     -7.50001365	    -27.65557996	     -0.96937065	      0.37136344	     26.59527704	     -9.65078554	      4.52787739	     99.52056264	    113.87071856	     28.31120999	     -3.58461506	      2.26190069	     90.30373128	    108.94911384
      1.83000000	    -18.72252259	      2.97337298	     -3.79912139	     -0.34641556	      0.60305592	     -0.56711867	     88.94963445	     -2.54060005	      6.29057959	    108.49426592	      1.89358216	     37.42596039	     -7.75043108	     -7.50001352	     88.29445623	     -8.14994565	      0.71407251	    107.03948916	      1.86819152	     34.17683123	    -13.73927568	     -7.50001352	    -27.63153886	     -1.26111551	      0.28366370	     32.16666270	     -9.40688755	      7.45398269	    100.51114435	    113.91285408	     33.48986232	     -3.49790541	      6.16424136	     91.45905051	    109.18280798
